HIERARCHY
ROOT Hips
{
	OFFSET 0.000000 88.474243 0.000000
	CHANNELS 6 Xposition Yposition Zposition Zrotation Yrotation Xrotation 
	JOINT Hips_Spine
	{
		OFFSET 0.000000 0.000000 0.000000
		CHANNELS 3 Zrotation Yrotation Xrotation
		JOINT Spine
		{
			OFFSET 0.005100 8.711998 -0.691000
			CHANNELS 3 Zrotation Yrotation Xrotation
			JOINT Spine1
			{
				OFFSET -0.009200 8.660301 -1.275000
				CHANNELS 3 Zrotation Yrotation Xrotation
				JOINT Spine2
				{
					OFFSET 0.006300 9.852501 -1.857000
					CHANNELS 3 Zrotation Yrotation Xrotation
					JOINT Spine2_Neck
					{
						OFFSET 0.000000 0.000000 0.000000
						CHANNELS 3 Zrotation Yrotation Xrotation
						JOINT Neck
						{
							OFFSET 0.016300 11.420799 -0.263300
							CHANNELS 3 Zrotation Yrotation Xrotation
							End Site #name: Head
							{
								OFFSET -0.019200 9.262405 2.362500
							}
						}
					}
					JOINT Spine2_LeftShoulder
					{
						OFFSET 0.000000 0.000000 0.000000
						CHANNELS 3 Zrotation Yrotation Xrotation
						JOINT LeftShoulder
						{
							OFFSET 5.616900 6.732201 -0.345700
							CHANNELS 3 Zrotation Yrotation Xrotation
							JOINT LeftArm
							{
								OFFSET 10.664888 -0.183372 -2.440700
								CHANNELS 3 Zrotation Yrotation Xrotation
								JOINT LeftForeArm
								{
									OFFSET 27.459126 0.000000 0.000000
									CHANNELS 3 Zrotation Yrotation Xrotation
									End Site #name: LeftHand
									{
										OFFSET 21.306858 0.000000 0.000000
									}
								}
							}
						}
					}
					JOINT Spine2_RightShoulder
					{
						OFFSET 0.000000 0.000000 0.000000
						CHANNELS 3 Zrotation Yrotation Xrotation
						JOINT RightShoulder
						{
							OFFSET -5.580300 6.737503 -0.344400
							CHANNELS 3 Zrotation Yrotation Xrotation
							JOINT RightArm
							{
								OFFSET -10.679335 -0.188484 -2.383900
								CHANNELS 3 Zrotation Yrotation Xrotation
								JOINT RightForeArm
								{
									OFFSET -27.503529 0.000000 0.000000
									CHANNELS 3 Zrotation Yrotation Xrotation
									End Site #name: RightHand
									{
										OFFSET -21.306808 0.000000 0.000000
									}
								}
							}
						}
					}
				}
			}
		}
	}
	JOINT Hips_LeftUpLeg
	{
		OFFSET 0.000000 0.000000 0.000000
		CHANNELS 3 Zrotation Yrotation Xrotation
		JOINT LeftUpLeg
		{
			OFFSET 6.857700 -6.739601 0.312100
			CHANNELS 3 Zrotation Yrotation Xrotation
			JOINT LeftLeg
			{
				OFFSET -0.367590 -34.731552 -4.572400
				CHANNELS 3 Zrotation Yrotation Xrotation
				End Site #name: LeftFoot
				{
					OFFSET 0.367590 -34.656704 -6.067400
				}
			}
		}
	}
	JOINT Hips_RightUpLeg
	{
		OFFSET 0.000000 0.000000 0.000000
		CHANNELS 3 Zrotation Yrotation Xrotation
		JOINT RightUpLeg
		{
			OFFSET -6.876100 -6.733299 0.301000
			CHANNELS 3 Zrotation Yrotation Xrotation
			JOINT RightLeg
			{
				OFFSET 0.347353 -34.795158 -4.515900
				CHANNELS 3 Zrotation Yrotation Xrotation
				End Site #name: RightFoot
				{
					OFFSET -0.347353 -34.589367 -6.070300
				}
			}
		}
	}
}
MOTION
Frames: 6
Frame Time: 0.041667
0.137373 0.541435 -0.916122 1.269914 -2.082748 -7.285788 -0.000000 0.000000 -0.000000 -2.085669 -0.810893 -4.198588 2.174594 -1.945059 -5.780153 0.000000 0.000000 0.000000 2.692744 -1.465953 -5.634494 3.473517 -4.762011 -3.548529 1.260556 -1.760053 -6.407831 -18.611074 0.282566 9.802314 -54.294111 13.995169 -1.451646 -0.386780 -20.654482 7.187389 1.689099 -1.845941 -3.084367 4.110318 6.102750 1.580828 64.748759 -0.288054 -7.646030 0.547110 52.047877 -0.680578 -0.000000 0.000000 -0.000000 -9.461527 25.299157 -0.840444 -2.033142 1.295218 18.288275 0.000000 0.000000 0.000000 -6.938574 5.801281 -19.151159 4.954904 -3.887311 16.055447 
-0.134207 0.542584 -0.970142 0.987183 -2.487423 -7.385332 -0.000000 0.000000 -0.000000 -1.060956 -0.839182 -4.916525 2.389651 -1.948077 -5.704353 0.000000 0.000000 0.000000 2.860211 -1.413259 -5.582458 3.347215 -4.866440 -3.229368 1.480334 -1.707729 -6.281522 -18.009338 0.198952 9.927228 -55.343323 14.960235 -2.276295 -0.441075 -21.385638 7.111345 1.886780 -1.804000 -3.086407 4.280386 6.276939 1.635186 64.451618 -0.581692 -7.778669 0.560075 52.438469 -0.678197 -0.000000 -0.000000 -0.000000 -8.748946 25.484243 -0.259233 -2.179883 1.079948 18.130491 0.000000 0.000000 0.000000 -6.189831 6.168596 -19.442063 5.014777 -4.407331 16.093592 
-0.388222 0.539938 -1.021414 0.710242 -2.509704 -7.460532 -0.000000 0.000000 -0.000000 -0.024004 -0.846653 -5.639492 2.588046 -1.946854 -5.598906 0.000000 0.000000 0.000000 3.009235 -1.355856 -5.520233 3.267508 -4.951937 -2.872304 1.687022 -1.651686 -6.141905 -17.428691 0.083939 10.022313 -56.303756 15.855623 -3.080578 -0.497730 -22.123759 7.060783 2.071897 -1.751847 -3.079349 4.596530 6.484417 1.697857 64.132014 -0.891319 -7.953539 0.574227 52.819361 -0.672420 -0.000000 -0.000000 -0.000000 -8.091907 25.594284 0.375238 -2.303412 0.847194 17.829780 0.000000 0.000000 0.000000 -5.429055 6.514893 -19.672405 5.168420 -4.794922 16.184842 
-0.614524 0.533915 -1.070218 0.486322 -2.811519 -7.489285 -0.000000 0.000000 -0.000000 0.933535 -0.837526 -6.342826 2.772007 -1.944938 -5.477019 0.000000 0.000000 0.000000 3.142152 -1.298568 -5.448341 3.223353 -5.009080 -2.493703 1.877930 -1.595115 -5.987421 -16.860115 -0.034593 10.080430 -57.148570 16.575631 -3.875612 -0.551610 -22.860563 7.020332 2.243292 -1.702071 -3.065177 4.985564 6.705002 1.758172 63.832988 -1.220890 -8.150351 0.598430 53.243506 -0.657320 -0.000000 -0.000000 -0.000000 -7.441049 25.750846 1.010016 -2.436390 0.573248 17.513417 0.000000 -0.000000 0.000000 -4.664267 6.865271 -19.918784 5.313119 -5.111124 16.354974 
-0.802603 0.523276 -1.118870 0.296624 -3.909332 -7.437970 -0.000000 0.000000 0.000000 1.737591 -0.835495 -6.906573 2.934535 -1.941145 -5.337307 0.000000 0.000000 0.000000 3.257213 -1.239299 -5.355747 3.181963 -5.031826 -2.069163 2.055804 -1.538999 -5.820676 -16.320156 -0.140859 10.119482 -57.820437 16.981988 -4.777677 -0.601800 -23.565608 6.985932 2.402711 -1.646554 -3.035214 5.376007 6.930189 1.814409 63.715793 -1.402947 -8.229997 0.624012 53.767362 -0.641101 -0.000000 -0.000000 -0.000000 -6.844911 25.952335 1.686426 -2.528634 0.345975 17.130451 0.000000 -0.000000 0.000000 -3.934950 7.272990 -20.264996 5.455420 -5.300853 16.622892 
-0.941661 0.511181 -1.168028 0.201776 -5.772411 -7.373832 -0.000000 -0.000000 0.000000 2.504404 -0.823737 -7.299997 3.077319 -1.938203 -5.187185 0.000000 0.000000 0.000000 3.356130 -1.178537 -5.239196 3.089633 -5.036272 -1.550660 2.215830 -1.485782 -5.640437 -15.811137 -0.234698 10.136063 -58.466921 17.278042 -5.576594 -0.648963 -24.229719 6.937402 2.542038 -1.593290 -2.994158 5.739142 7.142750 1.870420 63.648932 -1.561668 -8.275048 0.651279 54.302642 -0.623443 -0.000000 -0.000000 -0.000000 -6.295148 26.134154 2.368799 -2.656313 0.188210 16.763747 0.000000 -0.000000 0.000000 -3.298089 7.709275 -20.650368 5.591504 -5.462042 17.036954 
